<svg xmlns="http://www.w3.org/2000/svg" aria-label="Blocks" role="img" viewBox="0 0 26 26" width="26" height="26">
 <path d="M12,1 C12,0.45 11.55,0 11,0 L1,0 C0.45,0 0,0.45 0,1 L0,11 C0,11.55 0.45,12 1,12 L11,12 C11.55,12 12,11.55 12,11 L12,1 Z"/>
 <path d="M26,1 C26,0.45 25.55,0 25,0 L15,0 C14.45,0 14,0.45 14,1 L14,11 C14,11.55 14.45,12 15,12 L25,12 C25.55,12 26,11.55 26,11 L26,1 Z"/>
 <path d="M15,26 L25,26 C25.55,26 26,25.55 26,25 L26,15 C26,14.45 25.55,14 25,14 L15,14 C14.45,14 14,14.45 14,15 L14,25 C14,25.55 14.45,26 15,26 Z"/>
 <path d="M11,14 L1,14 C0.45,14 0,14.45 0,15 L0,25 C0,25.55 0.45,26 1,26 L11,26 C11.55,26 12,25.55 12,25 L12,15 C12,14.45 11.55,14 11,14 Z"/>
</svg>