<?xml version="1.0" encoding="UTF-8"?>
<svg width="20px" height="20px" viewBox="0 0 20 20" version="1.1" xmlns="http://www.w3.org/2000/svg" xmlns:xlink="http://www.w3.org/1999/xlink">
    <!-- Generator: Sketch 52.2 (67145) - http://www.bohemiancoding.com/sketch -->
    <title>Shape</title>
    <desc>Created with Sketch.</desc>
    <g id="PROMOTER_Events" stroke="none" stroke-width="1" fill="none" fill-rule="evenodd">
        <g id="PROMOTER-Events-09-Events-List-Hold" transform="translate(-355.000000, -31.000000)" fill="#9DA3B4" fill-rule="nonzero">
            <g id="top-menu-bar">
                <g id="search-bar" transform="translate(355.000000, 31.000000)">
                    <g id="magnifying-glass">
                        <path d="M19.755102,18.5795918 L14.9469388,13.7714286 C16.1387755,12.3183673 16.8571429,10.4571429 16.8571429,8.42857143 C16.8571429,3.7755102 13.0816327,0 8.42857143,0 C3.77142857,0 0,3.7755102 0,8.42857143 C0,13.0816327 3.77142857,16.8571429 8.42857143,16.8571429 C10.4571429,16.8571429 12.3142857,16.1428571 13.7673469,14.9510204 L18.5755102,19.755102 C18.9020408,20.0816327 19.4285714,20.0816327 19.755102,19.755102 C20.0816327,19.4326531 20.0816327,18.9020408 19.755102,18.5795918 Z M8.42857143,15.1795918 C4.70204082,15.1795918 1.67346939,12.1510204 1.67346939,8.42857143 C1.67346939,4.70612245 4.70204082,1.67346939 8.42857143,1.67346939 C12.1510204,1.67346939 15.1836735,4.70612245 15.1836735,8.42857143 C15.1836735,12.1510204 12.1510204,15.1795918 8.42857143,15.1795918 Z" id="Shape"></path>
                    </g>
                </g>
            </g>
        </g>
    </g>
</svg>
