<svg width="325" height="56" viewBox="0 0 325 56" fill="none" xmlns="http://www.w3.org/2000/svg">
<path d="M115.148 30.8698L118.671 19.301L122.194 30.8698H115.148ZM114.869 8.29834L101.728 47.1145H110.134L112.908 38.14H124.434L127.208 47.1145H135.614L122.472 8.29834H114.869Z" fill="white"/>
<path d="M176.445 8.29834H184.258V47.1145H176.445V8.29834Z" fill="white"/>
<path d="M147.87 24.941V15.5686H154.515C157.546 15.5686 159.147 17.189 159.147 20.2552C159.147 23.3208 157.546 24.941 154.515 24.941H147.87ZM155.777 32.1752C162.953 31.7989 167.069 27.4543 167.069 20.2552C167.069 12.7682 162.477 8.29834 154.787 8.29834H140.057V47.1142H147.87V34.984L158.571 47.1142H168.634L155.354 32.1974L155.777 32.1752Z" fill="white"/>
<path d="M82.5313 47.1145H90.3446V15.5689H103.461V8.29834H69.4141V15.5689H82.5313V47.1145Z" fill="white"/>
<path d="M49.489 18.4517L49.4826 25.1813L9.9661 15.0154L23.3114 6.31705L49.489 18.4517ZM25.5188 46.7641L25.5086 24.732L46.5851 30.1605L25.5188 46.7641ZM20.0033 44.6529L5.51421 28.4097L5.50562 19.5436L19.9803 23.3081L20.0033 44.6529ZM0 14.9387L0.00212257 30.5344L22.7523 56L54.9548 30.6016L55 14.9151L22.826 0L0 14.9387Z" fill="#8D36F9"/>
<path d="M204.148 24.6895C205.806 24.6895 207.137 24.2825 208.117 23.4683C209.121 22.6316 209.612 21.5461 209.612 20.1666C209.612 18.267 208.631 16.8197 206.74 16.2769V16.0734C208.258 15.508 209.168 14.1285 209.168 12.3872C209.168 9.87701 207.23 8.20353 204.148 8.20353H196V24.6895H204.148ZM198.989 10.5102H203.401C204.989 10.5102 206.016 11.3696 206.016 12.7943C206.016 14.2416 205.012 15.1236 203.401 15.1236H198.989V10.5102ZM198.989 17.4076H203.495C205.199 17.4076 206.39 18.1765 206.39 19.8726C206.39 21.4783 205.269 22.3602 203.495 22.3602H198.989V17.4076Z" fill="white"/>
<path d="M224.104 24.6895V22.021H216.702V8.20353H213.667V24.6895H224.104Z" fill="white"/>
<path d="M226.086 16.4578C226.086 19.0133 226.81 21.0486 228.258 22.609C229.728 24.1468 231.713 24.9157 234.211 24.9157C236.686 24.9157 238.671 24.1468 240.142 22.6316C241.612 21.1164 242.36 19.0359 242.36 16.4352C242.36 13.9024 241.636 11.8671 240.165 10.3293C238.717 8.76889 236.733 8 234.211 8C231.76 8 229.775 8.76889 228.304 10.2841C226.833 11.7992 226.086 13.8572 226.086 16.4578ZM229.308 16.4352C229.308 14.6713 229.752 13.2692 230.616 12.2063C231.503 11.1434 232.694 10.6233 234.211 10.6233C235.706 10.6233 236.896 11.1434 237.783 12.2063C238.694 13.2466 239.138 14.6713 239.138 16.4578C239.138 19.9857 237.293 22.2698 234.211 22.2698C231.223 22.2698 229.308 20.0535 229.308 16.4352Z" fill="white"/>
<path d="M258.184 19.1263C257.74 21.0486 256.106 22.2924 253.748 22.2924C250.736 22.2924 248.868 20.1214 248.868 16.4804C248.868 14.6939 249.311 13.2692 250.199 12.2063C251.086 11.1434 252.277 10.6233 253.794 10.6233C256.012 10.6233 257.693 11.7766 258.184 13.7441H261.359C261.102 12.0028 260.308 10.6007 258.931 9.5604C257.553 8.52013 255.849 8 253.818 8C251.366 8 249.382 8.76889 247.887 10.3293C246.393 11.8897 245.646 13.925 245.646 16.4578C245.646 19.0133 246.393 21.0486 247.864 22.609C249.358 24.1468 251.343 24.9157 253.818 24.9157C255.849 24.9157 257.553 24.3955 258.931 23.3326C260.332 22.2698 261.149 20.8677 261.359 19.1263H258.184Z" fill="white"/>
<path d="M279.611 24.6895L273.214 15.3723L279.378 8.20353H275.665L268.404 16.7971V8.20353H265.369V24.6895H268.404V20.9355L271.136 17.7469L275.922 24.6895H279.611Z" fill="white"/>
<path d="M207.721 46.7739V44.1732H199.035V39.4694H206.553V37.027H199.035V32.8885H207.721V30.2879H196V46.7739H207.721Z" fill="white"/>
<path d="M213.964 46.7739L215.575 44.0827L217.676 40.4644H217.816L219.848 43.9697L221.552 46.7739H225.264L220.081 38.5196L225.171 30.2879H221.529L219.684 33.4765L217.84 36.733H217.676L215.902 33.5444L213.964 30.2879H210.275L215.412 38.4743L210.275 46.7739H213.964Z" fill="white"/>
<path d="M228.142 30.2879V46.7739H231.178V41.2107H235.38C237.201 41.2107 238.672 40.7132 239.769 39.7181C240.867 38.7005 241.427 37.3888 241.427 35.738C241.427 34.1097 240.89 32.7981 239.793 31.803C238.695 30.7854 237.225 30.2879 235.38 30.2879H228.142ZM231.178 38.6552V32.9564H234.96C235.614 32.9564 236.151 33.0468 236.898 33.3861C237.668 33.7253 238.182 34.562 238.182 35.7606C238.182 37.5697 237.131 38.6552 234.96 38.6552H231.178Z" fill="white"/>
<path d="M255.494 46.7739V44.1053H248.092V30.2879H245.057V46.7739H255.494Z" fill="white"/>
<path d="M257.476 38.5422C257.476 41.0976 258.2 43.1329 259.647 44.6933C261.118 46.2311 263.103 47 265.601 47C268.076 47 270.061 46.2311 271.531 44.7159C273.002 43.2008 273.75 41.1202 273.75 38.5196C273.75 35.9867 273.026 33.9514 271.555 32.4136C270.107 30.8532 268.123 30.0843 265.601 30.0843C263.15 30.0843 261.165 30.8532 259.694 32.3684C258.223 33.8836 257.476 35.9415 257.476 38.5422ZM260.698 38.5196C260.698 36.7556 261.142 35.3535 262.006 34.2906C262.893 33.2278 264.084 32.7076 265.601 32.7076C267.095 32.7076 268.286 33.2278 269.173 34.2906C270.084 35.3309 270.528 36.7556 270.528 38.5422C270.528 42.07 268.683 44.3541 265.601 44.3541C262.613 44.3541 260.698 42.1379 260.698 38.5196Z" fill="white"/>
<path d="M280.759 46.7739V40.7358H285.242C287.086 40.7358 287.693 41.4594 287.693 43.0651V44.7838C287.693 45.7562 287.787 46.4346 287.95 46.7739H291.079C290.915 46.3668 290.822 45.7336 290.822 44.8742V42.5676C290.822 40.8036 290.028 39.7407 288.44 39.3563V39.198C290.098 38.4517 291.102 36.9818 291.102 35.1048C291.102 32.1196 289.211 30.2879 285.732 30.2879H277.724V46.7739H280.759ZM280.759 32.8659H284.915C286.876 32.8659 287.857 33.7253 287.857 35.444C287.857 37.0948 286.666 38.1577 284.681 38.1577H280.759V32.8659Z" fill="white"/>
<path d="M307.34 46.7739V44.1732H298.654V39.4694H306.172V37.027H298.654V32.8885H307.34V30.2879H295.619V46.7739H307.34Z" fill="white"/>
<path d="M314.657 46.7739V40.7358H319.14C320.984 40.7358 321.591 41.4594 321.591 43.0651V44.7838C321.591 45.7562 321.685 46.4346 321.848 46.7739H324.977C324.813 46.3668 324.72 45.7336 324.72 44.8742V42.5676C324.72 40.8036 323.926 39.7407 322.338 39.3563V39.198C323.996 38.4517 325 36.9818 325 35.1048C325 32.1196 323.109 30.2879 319.63 30.2879H311.622V46.7739H314.657ZM314.657 32.8659H318.813C320.774 32.8659 321.755 33.7253 321.755 35.444C321.755 37.0948 320.564 38.1577 318.579 38.1577H314.657V32.8659Z" fill="white"/>
</svg>
